<?xml version="1.0" encoding="UTF-8" standalone="no"?>
<!-- Created with Inkscape (http://www.inkscape.org/) -->

<svg
   xmlns:dc="http://purl.org/dc/elements/1.1/"
   xmlns:cc="http://creativecommons.org/ns#"
   xmlns:rdf="http://www.w3.org/1999/02/22-rdf-syntax-ns#"
   xmlns:svg="http://www.w3.org/2000/svg"
   xmlns="http://www.w3.org/2000/svg"
   xmlns:sodipodi="http://sodipodi.sourceforge.net/DTD/sodipodi-0.dtd"
   xmlns:inkscape="http://www.inkscape.org/namespaces/inkscape"
   width="577.14294"
   height="569.86353"
   id="svg2"
   version="1.1"
   inkscape:version="0.48+devel r9797"
   sodipodi:docname="Gray_circles.svg"
   inkscape:export-filename="C:\Documents and Settings\Nevit\Belgelerim\Gray_circles.png"
   inkscape:export-xdpi="161"
   inkscape:export-ydpi="161">
  <defs
     id="defs4" />
  <sodipodi:namedview
     id="base"
     pagecolor="#ffffff"
     bordercolor="#666666"
     borderopacity="1.0"
     inkscape:pageopacity="0.0"
     inkscape:pageshadow="2"
     inkscape:zoom="0.35"
     inkscape:cx="-114.99997"
     inkscape:cy="212.07466"
     inkscape:document-units="px"
     inkscape:current-layer="layer1"
     showgrid="false"
     inkscape:window-width="1024"
     inkscape:window-height="544"
     inkscape:window-x="-4"
     inkscape:window-y="-4"
     inkscape:window-maximized="1"
     fit-margin-top="10"
     fit-margin-left="10"
     fit-margin-right="10"
     fit-margin-bottom="10" />
  <metadata
     id="metadata7">
    <rdf:RDF>
      <cc:Work
         rdf:about="">
        <dc:format>image/svg+xml</dc:format>
        <dc:type
           rdf:resource="http://purl.org/dc/dcmitype/StillImage" />
        <dc:title></dc:title>
      </cc:Work>
    </rdf:RDF>
  </metadata>
  <g
     inkscape:label="Layer 1"
     inkscape:groupmode="layer"
     id="layer1"
     transform="translate(-18.5714,-174.57327)">
    <g
       id="g4155"
       inkscape:export-xdpi="161.54916"
       inkscape:export-ydpi="161.54916">
      <path
         sodipodi:type="arc"
         style="fill:#505050;fill-opacity:1;stroke:none"
         id="use4083"
         sodipodi:cx="470"
         sodipodi:cy="459.50504"
         sodipodi:rx="38.57143"
         sodipodi:ry="38.57143"
         d="m 508.57143,459.50504 a 38.57143,38.57143 0 1 1 -77.14286,0 38.57143,38.57143 0 1 1 77.14286,0 z"
         inkscape:transform-center-x="-240"
         inkscape:tile-x0="431.42857"
         inkscape:tile-y0="420.93361"
         transform="translate(77.1429,0)" />
      <path
         sodipodi:type="arc"
         style="fill:#5a5a5a;fill-opacity:1;stroke:none"
         id="use4085"
         sodipodi:cx="470"
         sodipodi:cy="459.50504"
         sodipodi:rx="38.57143"
         sodipodi:ry="38.57143"
         d="m 508.57143,459.50504 a 38.57143,38.57143 0 1 1 -77.14286,0 38.57143,38.57143 0 1 1 77.14286,0 z"
         inkscape:transform-center-x="-240"
         inkscape:tile-x0="431.42857"
         inkscape:tile-y0="420.93361"
         transform="matrix(0.93969262,0.34202014,-0.34202014,0.93969262,248.17361,-50.953083)" />
      <path
         sodipodi:type="arc"
         style="fill:#646464;fill-opacity:1;stroke:none"
         id="use4087"
         sodipodi:cx="470"
         sodipodi:cy="459.50504"
         sodipodi:rx="38.57143"
         sodipodi:ry="38.57143"
         d="m 508.57143,459.50504 a 38.57143,38.57143 0 1 1 -77.14286,0 38.57143,38.57143 0 1 1 77.14286,0 z"
         inkscape:transform-center-x="-240"
         inkscape:tile-x0="431.42857"
         inkscape:tile-y0="420.93361"
         transform="matrix(0.76604444,0.64278761,-0.64278761,0.76604444,426.31675,-40.337378)" />
      <path
         sodipodi:type="arc"
         style="fill:#6f6f6f;fill-opacity:1;stroke:none"
         id="use4089"
         sodipodi:cx="470"
         sodipodi:cy="459.50504"
         sodipodi:rx="38.57143"
         sodipodi:ry="38.57143"
         d="m 508.57143,459.50504 a 38.57143,38.57143 0 1 1 -77.14286,0 38.57143,38.57143 0 1 1 77.14286,0 z"
         inkscape:transform-center-x="-240"
         inkscape:tile-x0="431.42857"
         inkscape:tile-y0="420.93361"
         transform="matrix(0.5,0.8660254,-0.8660254,0.5,590.08589,30.566702)" />
      <path
         sodipodi:type="arc"
         style="fill:#797979;fill-opacity:1;stroke:none"
         id="use4091"
         sodipodi:cx="470"
         sodipodi:cy="459.50504"
         sodipodi:rx="38.57143"
         sodipodi:ry="38.57143"
         d="m 508.57143,459.50504 a 38.57143,38.57143 0 1 1 -77.14286,0 38.57143,38.57143 0 1 1 77.14286,0 z"
         inkscape:transform-center-x="-240"
         inkscape:tile-x0="431.42857"
         inkscape:tile-y0="420.93361"
         transform="matrix(0.17364818,0.98480775,-0.98480775,0.17364818,719.7279,153.20707)" />
      <path
         sodipodi:type="arc"
         style="fill:#838383;fill-opacity:1;stroke:none"
         id="use4093"
         sodipodi:cx="470"
         sodipodi:cy="459.50504"
         sodipodi:rx="38.57143"
         sodipodi:ry="38.57143"
         d="m 508.57143,459.50504 a 38.57143,38.57143 0 1 1 -77.14286,0 38.57143,38.57143 0 1 1 77.14286,0 z"
         inkscape:transform-center-x="-240"
         inkscape:tile-x0="431.42857"
         inkscape:tile-y0="420.93361"
         transform="matrix(-0.17364818,0.98480775,-0.98480775,-0.17364818,799.60605,312.79145)" />
      <path
         sodipodi:type="arc"
         style="fill:#8d8d8d;fill-opacity:1;stroke:none"
         id="use4095"
         sodipodi:cx="470"
         sodipodi:cy="459.50504"
         sodipodi:rx="38.57143"
         sodipodi:ry="38.57143"
         d="m 508.57143,459.50504 a 38.57143,38.57143 0 1 1 -77.14286,0 38.57143,38.57143 0 1 1 77.14286,0 z"
         inkscape:transform-center-x="-240"
         inkscape:tile-x0="431.42857"
         inkscape:tile-y0="420.93361"
         transform="matrix(-0.5,0.8660254,-0.8660254,-0.5,820.08588,490.07171)" />
      <path
         sodipodi:type="arc"
         style="fill:#979797;fill-opacity:1;stroke:none"
         id="use4097"
         sodipodi:cx="470"
         sodipodi:cy="459.50504"
         sodipodi:rx="38.57143"
         sodipodi:ry="38.57143"
         d="m 508.57143,459.50504 a 38.57143,38.57143 0 1 1 -77.14286,0 38.57143,38.57143 0 1 1 77.14286,0 z"
         inkscape:transform-center-x="-240"
         inkscape:tile-x0="431.42857"
         inkscape:tile-y0="420.93361"
         transform="matrix(-0.76604444,0.64278761,-0.64278761,-0.76604444,778.69721,663.66515)" />
      <path
         sodipodi:type="arc"
         style="fill:#a2a2a2;fill-opacity:1;stroke:none"
         id="use4099"
         sodipodi:cx="470"
         sodipodi:cy="459.50504"
         sodipodi:rx="38.57143"
         sodipodi:ry="38.57143"
         d="m 508.57143,459.50504 a 38.57143,38.57143 0 1 1 -77.14286,0 38.57143,38.57143 0 1 1 77.14286,0 z"
         inkscape:transform-center-x="-240"
         inkscape:tile-x0="431.42857"
         inkscape:tile-y0="420.93361"
         transform="matrix(-0.93969262,0.34202014,-0.34202014,-0.93969262,680.43212,812.63391)" />
      <path
         sodipodi:type="arc"
         style="fill:#acacac;fill-opacity:1;stroke:none"
         id="use4101"
         sodipodi:cx="470"
         sodipodi:cy="459.50504"
         sodipodi:rx="38.57143"
         sodipodi:ry="38.57143"
         d="m 508.57143,459.50504 a 38.57143,38.57143 0 1 1 -77.14286,0 38.57143,38.57143 0 1 1 77.14286,0 z"
         inkscape:transform-center-x="-240"
         inkscape:tile-x0="431.42857"
         inkscape:tile-y0="420.93361"
         transform="matrix(-1,0,0,-1,537.14283,919.01007)" />
      <path
         sodipodi:type="arc"
         style="fill:#b6b6b6;fill-opacity:1;stroke:none"
         id="use4103"
         sodipodi:cx="470"
         sodipodi:cy="459.50504"
         sodipodi:rx="38.57143"
         sodipodi:ry="38.57143"
         d="m 508.57143,459.50504 a 38.57143,38.57143 0 1 1 -77.14286,0 38.57143,38.57143 0 1 1 77.14286,0 z"
         inkscape:transform-center-x="-240"
         inkscape:tile-x0="431.42857"
         inkscape:tile-y0="420.93361"
         transform="matrix(-0.93969262,-0.34202014,0.34202014,-0.93969262,366.11216,969.96315)" />
      <path
         sodipodi:type="arc"
         style="fill:#c0c0c0;fill-opacity:1;stroke:none"
         id="use4105"
         sodipodi:cx="470"
         sodipodi:cy="459.50504"
         sodipodi:rx="38.57143"
         sodipodi:ry="38.57143"
         d="m 508.57143,459.50504 a 38.57143,38.57143 0 1 1 -77.14286,0 38.57143,38.57143 0 1 1 77.14286,0 z"
         inkscape:transform-center-x="-240"
         inkscape:tile-x0="431.42857"
         inkscape:tile-y0="420.93361"
         transform="matrix(-0.76604444,-0.64278761,0.64278761,-0.76604444,187.96892,959.34744)" />
      <path
         sodipodi:type="arc"
         style="fill:#cacaca;fill-opacity:1;stroke:none"
         id="use4107"
         sodipodi:cx="470"
         sodipodi:cy="459.50504"
         sodipodi:rx="38.57143"
         sodipodi:ry="38.57143"
         d="m 508.57143,459.50504 a 38.57143,38.57143 0 1 1 -77.14286,0 38.57143,38.57143 0 1 1 77.14286,0 z"
         inkscape:transform-center-x="-240"
         inkscape:tile-x0="431.42857"
         inkscape:tile-y0="420.93361"
         transform="matrix(-0.5,-0.8660254,0.8660254,-0.5,24.19981,888.44338)" />
      <path
         sodipodi:type="arc"
         style="fill:#d5d5d5;fill-opacity:1;stroke:none"
         id="use4109"
         sodipodi:cx="470"
         sodipodi:cy="459.50504"
         sodipodi:rx="38.57143"
         sodipodi:ry="38.57143"
         d="m 508.57143,459.50504 a 38.57143,38.57143 0 1 1 -77.14286,0 38.57143,38.57143 0 1 1 77.14286,0 z"
         inkscape:transform-center-x="-240"
         inkscape:tile-x0="431.42857"
         inkscape:tile-y0="420.93361"
         transform="matrix(-0.17364818,-0.98480775,0.98480775,-0.17364818,-105.44218,765.803)" />
      <path
         sodipodi:type="arc"
         style="fill:#dfdfdf;fill-opacity:1;stroke:none"
         id="use4111"
         sodipodi:cx="470"
         sodipodi:cy="459.50504"
         sodipodi:rx="38.57143"
         sodipodi:ry="38.57143"
         d="m 508.57143,459.50504 a 38.57143,38.57143 0 1 1 -77.14286,0 38.57143,38.57143 0 1 1 77.14286,0 z"
         inkscape:transform-center-x="-240"
         inkscape:tile-x0="431.42857"
         inkscape:tile-y0="420.93361"
         transform="matrix(0.17364818,-0.98480775,0.98480775,0.17364818,-185.32033,606.21858)" />
      <path
         sodipodi:type="arc"
         style="fill:#e9e9e9;fill-opacity:1;stroke:none"
         id="use4113"
         sodipodi:cx="470"
         sodipodi:cy="459.50504"
         sodipodi:rx="38.57143"
         sodipodi:ry="38.57143"
         d="m 508.57143,459.50504 a 38.57143,38.57143 0 1 1 -77.14286,0 38.57143,38.57143 0 1 1 77.14286,0 z"
         inkscape:transform-center-x="-240"
         inkscape:tile-x0="431.42857"
         inkscape:tile-y0="420.93361"
         transform="matrix(0.5,-0.8660254,0.8660254,0.5,-205.80016,428.93833)" />
      <path
         sodipodi:type="arc"
         style="fill:#f3f3f3;fill-opacity:1;stroke:none"
         id="use4115"
         sodipodi:cx="470"
         sodipodi:cy="459.50504"
         sodipodi:rx="38.57143"
         sodipodi:ry="38.57143"
         d="m 508.57143,459.50504 a 38.57143,38.57143 0 1 1 -77.14286,0 38.57143,38.57143 0 1 1 77.14286,0 z"
         inkscape:transform-center-x="-240"
         inkscape:tile-x0="431.42857"
         inkscape:tile-y0="420.93361"
         transform="matrix(0.76604444,-0.64278761,0.64278761,0.76604444,-164.41148,255.34489)" />
      <path
         sodipodi:type="arc"
         style="fill:#fdfdfd;fill-opacity:1;stroke:none"
         id="use4117"
         sodipodi:cx="470"
         sodipodi:cy="459.50504"
         sodipodi:rx="38.57143"
         sodipodi:ry="38.57143"
         d="m 508.57143,459.50504 a 38.57143,38.57143 0 1 1 -77.14286,0 38.57143,38.57143 0 1 1 77.14286,0 z"
         inkscape:transform-center-x="-240"
         inkscape:tile-x0="431.42857"
         inkscape:tile-y0="420.93361"
         transform="matrix(0.93969262,-0.34202014,0.34202014,0.93969262,-66.146398,106.37617)" />
    </g>
  </g>
</svg>
